<svg width="20" height="24" viewBox="0 0 20 24" fill="none" xmlns="http://www.w3.org/2000/svg">
<path d="M16.5498 12.7505C16.5604 11.832 16.804 10.9313 17.2576 10.1326C17.7112 9.3339 18.3601 8.6634 19.1435 8.18388C18.6455 7.47486 17.99 6.89091 17.2284 6.47786C16.4668 6.06481 15.6198 5.83391 14.7539 5.80328C12.8847 5.6138 11.1067 6.90359 10.1596 6.90359C9.21193 6.90359 7.7488 5.83111 6.19858 5.8607C5.18119 5.88898 4.1886 6.18109 3.31806 6.70839C2.44752 7.23569 1.72889 7.9801 1.2326 8.86868C-0.882269 12.5409 0.69278 17.9811 2.75377 20.9608C3.76231 22.4175 4.9645 24.0582 6.54309 23.9984C8.06433 23.9386 8.63843 23.0159 10.4751 23.0159C12.3123 23.0159 12.8291 23.9984 14.4361 23.9688C16.0716 23.9386 17.1097 22.482 18.11 21.0199C18.826 19.9685 19.3855 18.8187 19.771 17.6065C18.8187 17.1998 18.0063 16.5233 17.4339 15.6604C16.8615 14.7975 16.5542 13.7859 16.5498 12.7505ZM13.5296 3.83196C14.4354 2.76959 14.8842 1.39205 14.778 0C13.4105 0.132651 12.1455 0.783462 11.2426 1.81897C10.792 2.32062 10.4471 2.90785 10.2284 3.54565C10.0096 4.18345 9.92153 4.85876 9.96943 5.53133C10.6535 5.54078 11.3306 5.39237 11.9481 5.09765C12.5655 4.80292 13.1067 4.36981 13.5296 3.83196Z" fill="black"/>
</svg>
