<svg width="18" height="24" viewBox="0 0 18 24" fill="none" xmlns="http://www.w3.org/2000/svg">
<path d="M0.911932 24V0.727272H9.0483C10.6695 0.727272 12.0066 1.00758 13.0597 1.56818C14.1127 2.12121 14.8968 2.86742 15.4119 3.80682C15.9271 4.73864 16.1847 5.77273 16.1847 6.90909C16.1847 7.90909 16.0066 8.73485 15.6506 9.38636C15.3021 10.0379 14.84 10.553 14.2642 10.9318C13.696 11.3106 13.0786 11.5909 12.4119 11.7727V12C13.1241 12.0455 13.84 12.2955 14.5597 12.75C15.2794 13.2045 15.8816 13.8561 16.3665 14.7045C16.8513 15.553 17.0938 16.5909 17.0938 17.8182C17.0938 18.9848 16.8286 20.0341 16.2983 20.9659C15.768 21.8977 14.9309 22.6364 13.7869 23.1818C12.643 23.7273 11.1544 24 9.32102 24H0.911932ZM3.73011 21.5H9.32102C11.1619 21.5 12.4688 21.1439 13.2415 20.4318C14.0218 19.7121 14.4119 18.8409 14.4119 17.8182C14.4119 17.0303 14.2112 16.303 13.8097 15.6364C13.4081 14.9621 12.8362 14.4242 12.0938 14.0227C11.3513 13.6136 10.4725 13.4091 9.45739 13.4091H3.73011V21.5ZM3.73011 10.9545H8.95739C9.80587 10.9545 10.571 10.7879 11.2528 10.4545C11.9422 10.1212 12.4877 9.65151 12.8892 9.04545C13.2983 8.43939 13.5028 7.72727 13.5028 6.90909C13.5028 5.88636 13.1468 5.01894 12.4347 4.30682C11.7225 3.58712 10.5938 3.22727 9.0483 3.22727H3.73011V10.9545Z" fill="black"/>
</svg>
