<svg width="21" height="25" viewBox="0 0 21 25" fill="none" xmlns="http://www.w3.org/2000/svg">
<path d="M20.4048 8H17.5866C17.42 7.18939 17.1283 6.47727 16.7116 5.86364C16.3026 5.25 15.8026 4.73485 15.2116 4.31818C14.6283 3.89394 13.9806 3.57576 13.2685 3.36364C12.5563 3.15151 11.8139 3.04545 11.0412 3.04545C9.6321 3.04545 8.35559 3.40151 7.21165 4.11364C6.07528 4.82576 5.16998 5.875 4.49574 7.26136C3.82907 8.64773 3.49574 10.3485 3.49574 12.3636C3.49574 14.3788 3.82907 16.0795 4.49574 17.4659C5.16998 18.8523 6.07528 19.9015 7.21165 20.6136C8.35559 21.3258 9.6321 21.6818 11.0412 21.6818C11.8139 21.6818 12.5563 21.5758 13.2685 21.3636C13.9806 21.1515 14.6283 20.8371 15.2116 20.4205C15.8026 19.9962 16.3026 19.4773 16.7116 18.8636C17.1283 18.2424 17.42 17.5303 17.5866 16.7273H20.4048C20.1927 17.9167 19.8063 18.9811 19.2457 19.9205C18.6851 20.8598 17.9882 21.6591 17.1548 22.3182C16.3215 22.9697 15.3859 23.4659 14.348 23.8068C13.3177 24.1477 12.2154 24.3182 11.0412 24.3182C9.05635 24.3182 7.29119 23.8333 5.74574 22.8636C4.20028 21.8939 2.98438 20.5152 2.09801 18.7273C1.21165 16.9394 0.768466 14.8182 0.768466 12.3636C0.768466 9.90909 1.21165 7.78788 2.09801 6C2.98438 4.21212 4.20028 2.83333 5.74574 1.86364C7.29119 0.893939 9.05635 0.40909 11.0412 0.40909C12.2154 0.40909 13.3177 0.579545 14.348 0.920454C15.3859 1.26136 16.3215 1.76136 17.1548 2.42045C17.9882 3.07197 18.6851 3.86742 19.2457 4.80682C19.8063 5.73864 20.1927 6.80303 20.4048 8Z" fill="black"/>
</svg>
