<svg width="18" height="18" viewBox="0 0 18 18" fill="none" xmlns="http://www.w3.org/2000/svg">
<path d="M13.722 8.43678L13.7293 8.42768C13.7663 8.39238 13.7975 8.2971 13.8239 8.2475L14.5058 7.10243C14.7875 6.67749 15.0919 6.2585 15.6148 6.12287C16.2231 5.96512 16.6874 6.51746 16.4979 7.10675C16.3856 7.45582 16.147 7.92919 15.9751 8.24683L15.3207 9.48187L13.77 12.3046C13.7031 12.4107 13.7381 12.6192 13.7381 12.7397L13.7379 16.0419C13.7377 16.1534 13.7423 16.2675 13.7302 16.3784C13.6725 16.9062 13.2792 17.3143 12.7488 17.3627C12.5444 17.3813 12.3288 17.3687 12.1234 17.3687L2.99837 17.3692C2.81131 17.3693 2.61594 17.3814 2.43023 17.3607C1.82005 17.2928 1.46811 16.7524 1.46772 16.1652L1.46803 14.6289L1.46804 3.7341C1.46809 3.59924 1.4604 3.45588 1.4795 3.32221C1.55915 2.76464 2.03028 2.41055 2.57275 2.40866L3.98544 2.40403C4.07846 2.19408 4.05582 2.15582 4.23909 1.95653C4.59185 1.57296 5.0718 1.53516 5.55474 1.5276C5.84745 1.52301 5.90859 1.55371 6.10378 1.33017L6.33627 1.07616C6.95277 0.46433 7.90898 0.340068 8.61197 0.886507C8.79302 1.02726 9.15865 1.48537 9.36828 1.5167L9.38238 1.5185C9.6013 1.54797 9.82922 1.51915 10.0498 1.53529C10.5088 1.56886 10.9232 1.81694 11.1684 2.20789C11.208 2.271 11.2172 2.34375 11.2556 2.40289L12.7616 2.41299C13.2142 2.4448 13.6496 2.82433 13.7233 3.27735C13.7393 3.37562 13.7371 3.47806 13.7374 3.57734L13.7379 7.97261C13.7379 8.124 13.7412 8.27661 13.7303 8.42768L13.722 8.43678ZM7.53471 1.0934C7.03071 1.13038 6.86038 1.30655 6.54474 1.62496C6.48986 1.68035 6.41966 1.72615 6.36981 1.78509C6.28315 1.88756 6.23987 2.06522 6.0804 2.08591C5.57918 2.15091 4.87341 1.92925 4.53416 2.42039C4.30649 2.75002 4.40893 3.26771 4.74397 3.48571C4.93743 3.61162 5.18522 3.59337 5.4055 3.59351L7.74761 3.59373L9.87914 3.59383C9.97104 3.59376 10.0691 3.60083 10.1597 3.58374C11.1292 3.40088 10.9657 1.91505 9.71257 2.06908C9.29927 2.11987 9.30096 2.20942 8.95579 1.92604C8.49883 1.55083 8.17487 1.05655 7.53471 1.0934ZM2.56765 2.94557C2.0465 2.99714 2.01156 3.27166 2.01279 3.71487L2.01284 15.8289C2.01269 16.0376 1.96541 16.298 2.05639 16.4926L2.06289 16.507C2.18193 16.7666 2.40614 16.8276 2.66374 16.8279L9.89668 16.8274C9.99951 16.8273 10.1046 16.8316 10.2072 16.8252L10.1973 16.8128C10.0956 16.6757 10.1148 16.2126 10.1148 16.0522C10.1148 15.1983 10.1656 15.1464 10.5416 14.381L10.947 13.5867C10.9741 13.5392 10.9797 13.4953 11.024 13.4598C10.924 13.4406 10.7885 13.4563 10.6847 13.4563L6.85992 13.4566C6.69458 13.457 6.44279 13.4954 6.31609 13.3699C6.14846 13.2039 6.24669 12.9417 6.4732 12.919C6.61752 12.9044 6.77196 12.9158 6.91765 12.916L11.1925 12.9176C11.3677 12.9177 11.3095 12.9469 11.3826 12.7971L13.1136 9.55447C13.2283 9.35664 13.194 9.41775 13.1947 9.17348L13.1959 3.47112C13.1932 3.3918 13.1842 3.32353 13.1482 3.2519L13.1405 3.23611C13.0142 2.97925 12.7914 2.94384 12.5372 2.94456L11.3278 2.94358C11.3048 3.02438 11.3035 3.1099 11.2803 3.19226C11.1897 3.51471 10.9759 3.79475 10.6837 3.95988C10.3052 4.1738 9.88434 4.12722 9.46774 4.12715L5.33087 4.12722C5.08516 4.12701 4.86997 4.13327 4.6398 4.03585C4.19761 3.84871 3.92472 3.42198 3.87547 2.95433L2.56765 2.94557ZM15.7487 6.65436C15.5434 6.71567 15.381 6.85985 15.2253 7.00149C15.3568 7.0492 15.4763 7.10738 15.5975 7.17703L15.817 7.30746C15.8957 7.10028 16.1357 6.6205 15.7487 6.65436ZM14.9437 7.44942C14.7983 7.63736 14.6849 7.84816 14.5654 8.05298L14.2267 8.63148L11.2164 14.2408C11.1236 14.4206 10.6516 15.3155 10.6625 15.4188C10.6867 15.65 10.7462 16.0459 11.0626 15.873C11.0742 15.8261 11.084 15.7807 11.1068 15.7378C11.2665 15.4803 11.4984 15.3097 11.6789 15.0148L13.1043 12.4365L15.5689 7.81659C15.3716 7.66464 15.1757 7.54279 14.9437 7.44942ZM13.1959 13.3672C13.0995 13.6457 12.9177 13.9108 12.7772 14.1693L12.2721 15.0836C12.0086 15.5588 11.6818 16.1892 11.175 16.4419C11.0222 16.518 10.6566 16.6387 10.5963 16.8099L10.6128 16.8202L12.4695 16.8275C13.0663 16.8268 13.1949 16.6145 13.1961 16.0123L13.1959 13.3672Z" fill="black"/>
<path d="M7.66322 2.39871C6.90578 2.40353 6.78164 1.41238 7.52636 1.26746C8.30029 1.17278 8.35102 2.27822 7.66322 2.39871ZM7.5844 1.78852C7.5914 1.83458 7.62757 1.87517 7.67735 1.85736C7.68287 1.80595 7.65753 1.7674 7.5992 1.78271L7.5844 1.78852ZM3.09028 6.92587C2.59255 6.30996 3.25207 6.114 3.40765 6.40035C3.6257 6.80166 3.78165 6.59663 4.03323 6.30543L4.71386 5.45542C4.82935 5.3162 4.94265 5.17958 5.12445 5.13356C5.19789 5.13036 5.25133 5.13796 5.30905 5.18894C5.48649 5.34556 5.42001 5.49293 5.28585 5.63725L4.6717 6.3924C4.27563 6.89036 3.71134 7.554 3.09028 6.92587ZM7.4752 6.35145L6.77053 6.35131C6.67048 6.35124 6.55355 6.36168 6.45557 6.34319C6.14721 6.28497 6.16708 5.87248 6.46742 5.82344C6.59204 5.80308 6.73998 5.81785 6.86767 5.81792L10.8118 5.81774L11.4506 5.81672C11.5686 5.81619 11.7112 5.79883 11.8258 5.81869C12.1201 5.86963 12.0892 6.32199 11.8463 6.34951C11.7117 6.36477 11.561 6.35208 11.425 6.35208L7.4752 6.35145ZM3.07739 10.2801L2.9899 10.1562C2.86459 9.94266 2.87006 9.61855 3.19933 9.64214C3.5665 9.66847 3.41652 10.4254 4.04803 9.68046L4.64354 8.91177C4.77429 8.74524 4.92244 8.53792 5.14681 8.51106C5.31679 8.52024 5.45249 8.66747 5.39972 8.84557L5.39663 8.85492C5.3833 8.89585 5.35919 8.93009 5.33331 8.96398L4.5687 9.91281C4.15512 10.402 3.64563 10.8876 3.07739 10.2801ZM11.8061 9.90638L6.50679 9.90747C6.17509 9.89597 6.09539 9.42583 6.4729 9.3636L11.2613 9.36905C11.4346 9.36859 11.6137 9.35759 11.7862 9.36898C12.1385 9.39218 12.1264 9.84303 11.8061 9.90638ZM3.12075 13.8731C2.9673 13.6882 2.7608 13.3321 3.11159 13.2392C3.29767 13.1899 3.36462 13.2817 3.46781 13.4169C3.70909 13.733 3.91926 13.3875 4.08017 13.1809L4.59668 12.4919C4.74258 12.3006 4.89319 12.047 5.1402 11.9812L5.18871 11.98C5.37835 11.9839 5.49879 12.214 5.39659 12.3705C5.31053 12.5024 5.19792 12.623 5.10181 12.7485L4.53607 13.4786C4.26815 13.82 4.04529 14.1643 3.54445 14.093L3.52892 14.0906C3.36022 14.0668 3.24079 13.9896 3.12075 13.8731Z" fill="black"/>
</svg>
