<svg width="20" height="24" viewBox="0 0 20 24" fill="none" xmlns="http://www.w3.org/2000/svg">
<path d="M8 24H0.818182V0.727272H8.31818C10.5758 0.727272 12.5076 1.19318 14.1136 2.125C15.7197 3.04924 16.9508 4.37879 17.8068 6.11364C18.6629 7.84091 19.0909 9.90909 19.0909 12.3182C19.0909 14.7424 18.6591 16.8295 17.7955 18.5795C16.9318 20.322 15.6742 21.6629 14.0227 22.6023C12.3712 23.5341 10.3636 24 8 24ZM3.63636 21.5H7.81818C9.74242 21.5 11.3371 21.1288 12.6023 20.3864C13.8674 19.6439 14.8106 18.5871 15.4318 17.2159C16.053 15.8447 16.3636 14.2121 16.3636 12.3182C16.3636 10.4394 16.0568 8.82197 15.4432 7.46591C14.8295 6.10227 13.9129 5.05682 12.6932 4.32954C11.4735 3.5947 9.95455 3.22727 8.13636 3.22727H3.63636V21.5Z" fill="black"/>
</svg>
