<svg width="16" height="16" viewBox="0 0 16 16" fill="none" xmlns="http://www.w3.org/2000/svg">
<path d="M5.99291 14.5786V12.2785C5.9929 11.6935 6.46984 11.2181 7.06076 11.2142H9.22532C9.81906 11.2142 10.3004 11.6907 10.3004 12.2785V14.5857C10.3002 15.0824 10.7007 15.4884 11.2023 15.5H12.6453C14.0838 15.5 15.25 14.3455 15.25 12.9214V6.37838C15.2423 5.81812 14.9766 5.29201 14.5285 4.94977L9.59329 1.01398C8.7287 0.328675 7.49965 0.328675 6.63506 1.01398L1.72152 4.95692C1.27169 5.29777 1.00554 5.82475 1 6.38552V12.9214C1 14.3455 2.16616 15.5 3.60468 15.5H5.04772C5.56177 15.5 5.97848 15.0875 5.97848 14.5786" stroke="white" stroke-linecap="round" stroke-linejoin="round"/>
</svg>
