<svg width="486" height="484" viewBox="0 0 486 484" fill="none" xmlns="http://www.w3.org/2000/svg">
<g clip-path="url(#clip0_252_689)">
<path d="M165.375 128.097H245.117C246.862 128.103 248.586 127.71 250.157 126.948C251.728 126.187 253.105 125.077 254.182 123.704C255.279 122.317 256.046 120.699 256.423 118.971C256.8 117.244 256.778 115.453 256.359 113.736C249.009 82.9528 249.01 50.872 256.359 20.0889C256.778 18.3714 256.8 16.5809 256.423 14.8537C256.046 13.1265 255.279 11.5081 254.182 10.1216C253.105 8.74805 251.728 7.63836 250.157 6.87701C248.586 6.11566 246.862 5.72271 245.117 5.72808H165.375C162.622 5.73599 159.961 6.72092 157.866 8.50744C155.771 10.294 154.379 12.7661 153.936 15.4835C148.688 49.5688 148.688 84.2565 153.936 118.342C154.379 121.059 155.771 123.531 157.866 125.318C159.961 127.104 162.622 128.089 165.375 128.097Z" fill="#E6E6E6"/>
<path d="M245.116 11.7281C245.955 11.7252 246.783 11.9137 247.537 12.279C248.292 12.6444 248.953 13.177 249.471 13.8365C250.004 14.5121 250.376 15.3004 250.559 16.1414C250.741 16.9825 250.73 17.8541 250.525 18.69C242.955 50.3929 242.955 83.4323 250.524 115.135C250.729 115.971 250.741 116.842 250.559 117.683C250.376 118.524 250.004 119.312 249.471 119.988C248.954 120.647 248.292 121.181 247.537 121.546C246.783 121.912 245.955 122.1 245.116 122.097H165.375C164.053 122.098 162.773 121.629 161.765 120.774C160.756 119.919 160.083 118.734 159.866 117.43C154.711 83.9491 154.711 49.8762 159.866 16.395C160.083 15.0908 160.756 13.9058 161.765 13.0511C162.773 12.1965 164.053 11.7276 165.375 11.728L245.116 11.7281Z" fill="white"/>
<path d="M182.776 40.5786H224.621C226.212 40.5768 227.737 39.9441 228.862 38.8193C229.987 37.6945 230.619 36.1695 230.621 34.5788V32.2341C230.619 30.6434 229.987 29.1184 228.862 27.9936C227.737 26.8688 226.212 26.2361 224.621 26.2344H182.776C181.186 26.2361 179.661 26.8688 178.536 27.9936C177.411 29.1184 176.778 30.6434 176.777 32.2341V34.5788C176.778 36.1695 177.411 37.6946 178.536 38.8194C179.661 39.9442 181.186 40.5768 182.776 40.5786Z" fill="#E6E6E6"/>
<path d="M182.776 70.2045H224.621C226.212 70.2028 227.737 69.5701 228.862 68.4453C229.987 67.3205 230.619 65.7954 230.621 64.2047V61.8601C230.619 60.2694 229.987 58.7443 228.862 57.6195C227.737 56.4947 226.212 55.8621 224.621 55.8604H182.776C181.186 55.8621 179.661 56.4947 178.536 57.6195C177.411 58.7443 176.778 60.2694 176.777 61.8601V64.2047C176.778 65.7954 177.411 67.3205 178.536 68.4453C179.661 69.5701 181.186 70.2028 182.776 70.2045Z" fill="#E6E6E6"/>
<path d="M182.776 99.8305H224.621C226.212 99.8287 227.737 99.1961 228.862 98.0713C229.987 96.9465 230.619 95.4214 230.621 93.8307V91.4861C230.619 89.8954 229.987 88.3703 228.862 87.2455C227.737 86.1207 226.212 85.4881 224.621 85.4863H182.776C181.186 85.4881 179.661 86.1207 178.536 87.2455C177.411 88.3703 176.778 89.8954 176.777 91.4861V93.8307C176.778 95.4214 177.411 96.9465 178.536 98.0713C179.661 99.1961 181.186 99.8287 182.776 99.8305Z" fill="#E6E6E6"/>
<path d="M15.3751 204.097H95.1165C96.8623 204.103 98.5862 203.71 100.157 202.948C101.728 202.187 103.105 201.077 104.182 199.704C105.279 198.317 106.046 196.699 106.423 194.971C106.8 193.244 106.778 191.453 106.359 189.736C99.0094 158.953 99.0096 126.872 106.359 96.0889C106.778 94.3714 106.8 92.5809 106.423 90.8537C106.046 89.1265 105.279 87.5081 104.182 86.1216C103.105 84.748 101.728 83.6384 100.157 82.877C98.5863 82.1157 96.8623 81.7227 95.1165 81.7281H15.3751C12.6219 81.736 9.96096 82.7209 7.86612 84.5074C5.77128 86.294 4.37861 88.7661 3.93613 91.4835C-1.31192 125.569 -1.31192 160.257 3.93613 194.342C4.3786 197.059 5.77128 199.531 7.86612 201.318C9.96096 203.104 12.6219 204.089 15.3751 204.097Z" fill="#E6E6E6"/>
<path d="M95.1165 87.7281C95.9548 87.7252 96.7828 87.9137 97.5374 88.279C98.2919 88.6444 98.9532 89.177 99.471 89.8365C100.004 90.5121 100.376 91.3004 100.559 92.1414C100.741 92.9825 100.73 93.8541 100.525 94.69C92.9554 126.393 92.9552 159.432 100.524 191.135C100.729 191.971 100.741 192.842 100.559 193.683C100.376 194.524 100.004 195.312 99.4712 195.988C98.9536 196.647 98.2919 197.181 97.5374 197.546C96.7828 197.912 95.9548 198.1 95.1165 198.097H15.375C14.0528 198.098 12.7734 197.629 11.7646 196.774C10.7558 195.919 10.083 194.734 9.86622 193.43C4.71143 159.949 4.71143 125.876 9.86622 92.3951C10.083 91.0908 10.7558 89.9058 11.7646 89.0511C12.7734 88.1965 14.0528 87.7276 15.375 87.728L95.1165 87.7281Z" fill="white"/>
<path d="M174.375 290.597H254.117C255.938 290.603 257.737 290.193 259.376 289.398C261.015 288.604 262.451 287.446 263.575 286.013C264.719 284.568 265.518 282.88 265.911 281.079C266.305 279.277 266.282 277.41 265.845 275.619C258.514 244.913 258.514 212.912 265.845 182.206C266.282 180.415 266.305 178.548 265.911 176.746C265.518 174.945 264.719 173.258 263.575 171.812C262.451 170.379 261.015 169.221 259.376 168.427C257.737 167.633 255.938 167.223 254.117 167.228H174.375C171.503 167.237 168.727 168.265 166.541 170.129C164.356 171.993 162.903 174.572 162.442 177.407C157.186 211.543 157.186 246.282 162.442 280.418C162.903 283.253 164.356 285.832 166.541 287.697C168.727 289.561 171.503 290.589 174.375 290.597Z" fill="#F2F2F2"/>
<path d="M32.7763 131.579H74.6213C76.212 131.577 77.7371 130.944 78.8619 129.819C79.9867 128.695 80.6194 127.169 80.6211 125.579V123.234C80.6194 121.643 79.9867 120.118 78.8619 118.994C77.7371 117.869 76.212 117.236 74.6213 117.234H32.7763C31.1856 117.236 29.6606 117.869 28.5358 118.994C27.411 120.118 26.7783 121.643 26.7766 123.234V125.579C26.7783 127.17 27.411 128.695 28.5358 129.819C29.6606 130.944 31.1856 131.577 32.7763 131.579Z" fill="#E6E6E6"/>
<path d="M32.7763 161.204H74.6213C76.212 161.203 77.7371 160.57 78.8619 159.445C79.9867 158.32 80.6194 156.795 80.6211 155.205V152.86C80.6194 151.269 79.9867 149.744 78.8619 148.62C77.7371 147.495 76.212 146.862 74.6213 146.86H32.7763C31.1856 146.862 29.6606 147.495 28.5358 148.62C27.411 149.744 26.7783 151.269 26.7766 152.86V155.205C26.7783 156.795 27.411 158.32 28.5358 159.445C29.6606 160.57 31.1856 161.203 32.7763 161.204Z" fill="#E6E6E6"/>
<path d="M214.023 251.5C201.32 251.5 191.023 241.203 191.023 228.5C191.023 215.797 201.32 205.5 214.023 205.5C226.725 205.5 237.023 215.797 237.023 228.5C237.023 241.203 226.725 251.5 214.023 251.5Z" fill="white"/>
<path d="M203.023 225.5H211.023V217.5C211.023 216.704 211.339 215.941 211.901 215.379C212.464 214.816 213.227 214.5 214.023 214.5C214.818 214.5 215.581 214.816 216.144 215.379C216.707 215.941 217.023 216.704 217.023 217.5V225.5H225.023C225.818 225.5 226.581 225.816 227.144 226.379C227.707 226.941 228.023 227.704 228.023 228.5C228.023 229.296 227.707 230.059 227.144 230.621C226.581 231.184 225.818 231.5 225.023 231.5H217.023V239.5C217.023 240.296 216.707 241.059 216.144 241.621C215.581 242.184 214.818 242.5 214.023 242.5C213.227 242.5 212.464 242.184 211.901 241.621C211.339 241.059 211.023 240.296 211.023 239.5V231.5H203.023C202.227 231.5 201.464 231.184 200.901 230.621C200.339 230.059 200.023 229.296 200.023 228.5C200.023 227.704 200.339 226.941 200.901 226.379C201.464 225.816 202.227 225.5 203.023 225.5Z" fill="#E6E6E6"/>
<path d="M185.023 17H227.023C228.216 16.9987 229.36 16.5241 230.203 15.6805C231.047 14.8369 231.521 13.6931 231.523 12.5V4.5C231.521 3.30694 231.047 2.16313 230.203 1.3195C229.36 0.475881 228.216 0.00134456 227.023 0H185.023C183.83 0.00134456 182.686 0.475881 181.842 1.3195C180.999 2.16313 180.524 3.30694 180.523 4.5V12.5C180.524 13.6931 180.999 14.8369 181.842 15.6805C182.686 16.5241 183.83 16.9987 185.023 17Z" fill="#CCCCCC"/>
<path d="M33.0227 94H75.0227C76.2158 93.9987 77.3596 93.5241 78.2032 92.6805C79.0468 91.8369 79.5214 90.6931 79.5227 89.5V81.5C79.5214 80.3069 79.0468 79.1631 78.2032 78.3195C77.3596 77.4759 76.2158 77.0013 75.0227 77H33.0227C31.8296 77.0013 30.6858 77.4759 29.8422 78.3195C28.9986 79.1631 28.524 80.3069 28.5227 81.5V89.5C28.524 90.6931 28.9986 91.8369 29.8422 92.6805C30.6858 93.5241 31.8296 93.9987 33.0227 94Z" fill="#CCCCCC"/>
<path d="M397.238 471.061H384.978L381.145 423.773H397.24L397.238 471.061Z" fill="#FFB8B8"/>
<path d="M400.365 467.059L376.221 467.058H376.22C374.199 467.058 372.198 467.455 370.332 468.229C368.465 469.002 366.769 470.135 365.34 471.564C363.911 472.993 362.778 474.689 362.004 476.556C361.231 478.422 360.833 480.423 360.833 482.444V482.944L400.364 482.945L400.365 467.059Z" fill="#2F2E41"/>
<path d="M463.238 471.061H450.978L445.145 423.773H463.24L463.238 471.061Z" fill="#FFB8B8"/>
<path d="M466.365 467.059L442.221 467.058H442.22C440.199 467.058 438.198 467.455 436.332 468.229C434.465 469.002 432.769 470.135 431.34 471.564C429.911 472.993 428.778 474.689 428.004 476.556C427.231 478.422 426.833 480.423 426.833 482.444V482.944L466.364 482.945L466.365 467.059Z" fill="#2F2E41"/>
<path d="M461.063 456.123C462.313 456.122 463.518 455.652 464.438 454.804C464.931 454.354 465.329 453.808 465.606 453.201C465.884 452.593 466.036 451.935 466.053 451.267L470.97 275.054L401.159 292.506L379.619 357.124C376.842 365.436 375.639 374.194 376.074 382.948L378.748 445.584C378.809 446.868 379.362 448.078 380.292 448.964C381.222 449.85 382.458 450.344 383.743 450.343H395.452C396.66 450.338 397.827 449.898 398.737 449.103C399.647 448.307 400.24 447.211 400.407 446.014L408.776 376.872C409.507 371.478 411.394 366.306 414.307 361.708L430.777 335.632C430.887 335.458 431.048 335.322 431.238 335.243C431.429 335.164 431.639 335.145 431.84 335.19C432.041 335.235 432.223 335.341 432.362 335.494C432.501 335.646 432.589 335.838 432.614 336.042L445.539 451.13C445.678 452.298 446.224 453.379 447.081 454.183C447.939 454.987 449.052 455.463 450.226 455.527L460.778 456.114C460.873 456.119 460.968 456.123 461.063 456.123Z" fill="#2F2E41"/>
<path d="M412.776 160.967C399.211 160.967 388.215 149.971 388.215 136.406C388.215 122.842 399.211 111.845 412.776 111.845C426.341 111.845 437.337 122.842 437.337 136.406C437.337 149.971 426.341 160.967 412.776 160.967Z" fill="#FFB8B8"/>
<path d="M401.493 299.672C401.916 299.671 402.337 299.618 402.746 299.513L472.011 281.753C473.25 281.436 474.319 280.657 475.001 279.575C475.682 278.493 475.923 277.192 475.674 275.938L459.767 190.247C458.776 185.294 456.598 180.655 453.419 176.729C450.24 172.803 446.156 169.707 441.517 167.707C436.997 165.707 432.055 164.85 427.125 165.212C422.195 165.574 417.431 167.143 413.252 169.782C412.282 170.387 411.305 171.047 410.349 171.743C406.5 174.583 403.361 178.275 401.179 182.531C398.996 186.787 397.83 191.49 397.77 196.273L396.505 294.601C396.497 295.263 396.619 295.919 396.866 296.533C397.113 297.146 397.478 297.705 397.942 298.177C398.406 298.648 398.959 299.023 399.568 299.28C400.178 299.536 400.832 299.67 401.493 299.672Z" fill="#6C63FF"/>
<path d="M464.884 300.68C465.711 299.464 466.26 298.082 466.495 296.631C466.729 295.179 466.642 293.694 466.24 292.28C465.838 290.866 465.132 289.557 464.169 288.446C463.207 287.335 462.013 286.448 460.67 285.848L463.751 250.246L447.425 259.095L447.003 291.546C446.144 293.868 446.167 296.423 447.068 298.729C447.968 301.034 449.682 302.93 451.886 304.056C454.091 305.182 456.631 305.46 459.027 304.838C461.422 304.216 463.507 302.736 464.884 300.68Z" fill="#FFB8B8"/>
<path d="M459.052 281.139C459.512 281.139 459.971 281.081 460.417 280.966C461.377 280.722 462.253 280.222 462.952 279.52C463.652 278.819 464.148 277.941 464.389 276.98L472.413 245.096C475.216 233.961 473.88 222.186 468.651 211.962L451.843 179.08C450.78 175.143 448.213 171.781 444.694 169.72C441.176 167.659 436.988 167.063 433.034 168.061C431.064 168.559 429.212 169.443 427.585 170.662C425.959 171.88 424.59 173.41 423.56 175.162C422.508 176.939 421.819 178.907 421.536 180.952C421.252 182.997 421.377 185.079 421.905 187.075L445.833 240.581L445.549 272.616C445.541 273.747 445.881 274.852 446.522 275.783C447.163 276.713 448.075 277.425 449.133 277.821L457.141 280.795C457.752 281.022 458.399 281.139 459.052 281.139Z" fill="#6C63FF"/>
<path d="M344.516 287.585C345.977 287.418 347.383 286.933 348.636 286.163C349.888 285.394 350.957 284.36 351.767 283.133C352.577 281.906 353.108 280.516 353.322 279.062C353.537 277.607 353.43 276.124 353.009 274.715L382.002 253.826L364.646 247.224L339.774 268.073C337.455 268.937 335.533 270.622 334.372 272.808C333.212 274.994 332.894 277.53 333.479 279.935C334.063 282.34 335.51 284.447 337.544 285.857C339.578 287.267 342.059 287.882 344.516 287.585Z" fill="#FFB8B8"/>
<path d="M359.694 272.331C360.549 272.33 361.392 272.131 362.156 271.749L391.556 257.032C401.824 251.892 409.877 243.198 414.216 232.567L428.174 198.376C430.464 195.002 431.337 190.864 430.604 186.852C429.871 182.841 427.591 179.278 424.256 176.932C422.589 175.76 420.706 174.932 418.716 174.495C416.726 174.058 414.67 174.022 412.665 174.388C410.638 174.753 408.703 175.516 406.972 176.634C405.242 177.752 403.751 179.202 402.585 180.901L377.64 233.94L353.174 254.623C352.312 255.354 351.696 256.333 351.409 257.426C351.121 258.519 351.177 259.674 351.567 260.735L354.537 268.743C354.925 269.793 355.625 270.699 356.544 271.339C357.467 271.985 358.567 272.331 359.694 272.331Z" fill="#6C63FF"/>
<path d="M417.934 161.343C416.629 161.914 413.956 151.516 415.153 149.436C416.934 146.343 416.828 146.365 418.01 144.319C419.192 142.273 419.456 139.472 417.926 137.672C416.396 135.871 412.854 136.11 412.156 138.367C412.605 134.08 408.364 130.633 404.163 129.664C399.961 128.696 395.53 129.297 391.306 128.435C386.403 127.435 381.303 123.325 383.259 117.934C383.594 117.037 384.097 116.211 384.74 115.5C387 112.959 390.161 111.874 393.252 110.825C399.682 108.643 406.288 106.433 413.074 106.674C418.665 106.966 424.05 108.882 428.57 112.187C433.089 115.492 436.547 120.043 438.52 125.283C438.988 126.594 439.35 127.94 439.604 129.308C441.933 141.833 434.66 154.186 422.847 158.956L417.934 161.343Z" fill="#2F2E41"/>
<path opacity="0.2" d="M446.934 273.343L446.377 240.414L428.934 205.343L442.934 241.343L446.934 273.343Z" fill="black"/>
<path d="M288.756 355.982L362.395 325.387C364.009 324.722 365.45 323.698 366.609 322.392C367.767 321.086 368.613 319.533 369.081 317.851C369.562 316.15 369.649 314.361 369.334 312.621C369.02 310.882 368.313 309.236 367.266 307.811C348.668 282.204 336.36 252.578 331.336 221.331C331.064 219.585 330.397 217.923 329.386 216.472C328.375 215.022 327.046 213.822 325.501 212.962C323.979 212.107 322.282 211.61 320.539 211.51C318.797 211.41 317.054 211.708 315.444 212.383L241.805 242.979C239.266 244.042 237.186 245.973 235.937 248.426C234.688 250.88 234.351 253.697 234.985 256.376C243.216 289.867 256.526 321.9 274.45 351.363C275.901 353.702 278.136 355.451 280.756 356.297C283.376 357.143 286.211 357.031 288.756 355.982Z" fill="#E6E6E6"/>
<path d="M317.746 217.924C318.519 217.6 319.356 217.456 320.193 217.504C321.03 217.552 321.845 217.79 322.576 218.2C323.328 218.62 323.974 219.205 324.465 219.912C324.956 220.618 325.28 221.428 325.411 222.278C330.585 254.459 343.262 284.97 362.415 311.342C362.925 312.035 363.271 312.835 363.425 313.682C363.579 314.529 363.538 315.399 363.305 316.227C363.08 317.035 362.674 317.781 362.117 318.408C361.56 319.035 360.868 319.527 360.093 319.846L286.454 350.442C285.234 350.949 283.872 351.007 282.613 350.605C281.353 350.203 280.277 349.367 279.577 348.246C261.97 319.305 248.897 287.84 240.811 254.943C240.511 253.655 240.677 252.303 241.281 251.127C241.885 249.95 242.886 249.027 244.108 248.52L317.746 217.924Z" fill="white"/>
<path d="M278.537 286.031L317.179 269.976C318.647 269.364 319.813 268.195 320.42 266.724C321.027 265.254 321.026 263.603 320.418 262.133L319.518 259.968C318.906 258.5 317.737 257.334 316.266 256.727C314.796 256.12 313.145 256.121 311.675 256.73L273.033 272.785C271.565 273.397 270.399 274.566 269.792 276.037C269.185 277.507 269.186 279.158 269.794 280.628L270.694 282.793C271.306 284.261 272.475 285.427 273.946 286.034C275.416 286.641 277.067 286.64 278.537 286.031Z" fill="#6C63FF"/>
<path d="M289.904 313.39L328.546 297.334C330.014 296.722 331.18 295.553 331.787 294.083C332.394 292.613 332.393 290.961 331.785 289.492L330.885 287.327C330.273 285.858 329.104 284.693 327.633 284.086C326.163 283.478 324.512 283.479 323.042 284.088L284.4 300.143C282.932 300.755 281.766 301.925 281.159 303.395C280.552 304.865 280.553 306.516 281.161 307.986L282.061 310.151C282.673 311.619 283.842 312.785 285.313 313.392C286.783 313.999 288.434 313.998 289.904 313.39Z" fill="#6C63FF"/>
<path d="M263.052 247.582C263.631 247.581 264.204 247.469 264.74 247.251L303.678 231.509C304.783 231.06 305.666 230.192 306.132 229.093C306.598 227.995 306.609 226.757 306.163 225.65L303.164 218.233C302.717 217.127 301.848 216.244 300.75 215.778C299.651 215.312 298.412 215.301 297.306 215.748L258.368 231.491C257.262 231.94 256.38 232.808 255.914 233.906C255.448 235.005 255.437 236.243 255.882 237.35L258.881 244.767C259.218 245.597 259.795 246.309 260.538 246.81C261.281 247.311 262.156 247.58 263.052 247.582Z" fill="#CCCCCC"/>
<path d="M344.834 483.5H484.834C485.099 483.5 485.353 483.395 485.541 483.207C485.728 483.02 485.834 482.765 485.834 482.5C485.834 482.235 485.728 481.98 485.541 481.793C485.353 481.605 485.099 481.5 484.834 481.5H344.834C344.569 481.5 344.314 481.605 344.127 481.793C343.939 481.98 343.834 482.235 343.834 482.5C343.834 482.765 343.939 483.02 344.127 483.207C344.314 483.395 344.569 483.5 344.834 483.5Z" fill="#CCCCCC"/>
</g>
<defs>
<clipPath id="clip0_252_689">
<rect width="485.834" height="483.5" fill="white" transform="matrix(-1 0 0 1 485.834 0)"/>
</clipPath>
</defs>
</svg>
