<svg width="221" height="25" viewBox="0 0 221 25" fill="none" xmlns="http://www.w3.org/2000/svg">
<path d="M0 3.46092C0 4.48695 0.342009 5.34197 0.855022 5.51298C1.53904 5.79799 1.71004 7.10902 1.71004 12.3532C1.71004 17.7683 1.53904 18.8513 0.855022 18.8513C0.285007 18.8513 0 19.4783 0 20.8464V22.8414H4.27511H8.55022V20.8464C8.55022 19.4783 8.26522 18.8513 7.6952 18.8513C7.01118 18.8513 6.84018 17.9393 6.89718 13.8352V8.87607L8.03721 12.8662C8.66423 15.0322 9.51925 18.2243 10.0323 19.8774L10.8873 22.8984L14.0794 22.7274L17.2715 22.5564L18.0695 19.4213C18.5255 17.7113 19.3805 14.4622 19.9505 12.2962L21.0336 8.30605V13.5502C21.0906 16.7423 20.8625 18.8513 20.5205 18.8513C20.2355 18.8513 19.9505 19.7634 19.9505 20.8464V22.8414H24.5106H29.0708V20.8464C29.0708 19.4783 28.7858 18.8513 28.2157 18.8513C27.5317 18.8513 27.3607 17.7683 27.3607 12.3532C27.3607 7.10902 27.5317 5.79799 28.2157 5.51298C28.7288 5.34197 29.0708 4.48695 29.0708 3.46092V1.75088H23.4276H17.7275L16.8724 4.88596C16.3594 6.59601 15.7894 8.76206 15.6184 9.73109C15.3904 10.7001 15.0484 11.5551 14.8204 11.7261C14.6494 11.8401 13.8514 9.67409 13.1103 6.88101L11.7993 1.75088H5.92816H0V3.46092Z" fill="white"/>
<path d="M39.484 1.36617C33.8408 2.3352 30.7058 6.72431 31.1048 13.2795C31.4468 19.7777 34.5249 22.9697 40.909 23.4258C45.6402 23.7678 48.9462 22.1147 50.8273 18.4666C52.5943 15.0465 52.4803 8.03535 50.5993 5.58428C48.0342 2.10719 44.1011 0.625151 39.484 1.36617ZM43.8731 7.75034C45.1841 10.3154 44.7851 16.3576 43.1321 17.9536C42.1631 18.9796 41.7641 19.0366 40.738 18.4666C39.142 17.6116 38.401 15.6735 38.401 12.1395C38.401 6.4393 41.8211 3.70323 43.8731 7.75034Z" fill="white"/>
<path d="M54.0842 5.48417V9.18927H56.3643C58.5303 9.18927 58.6444 9.07526 58.6444 7.47922C58.6444 6.05418 58.8724 5.76917 60.0694 5.76917H61.4944V12.3243V18.8795H60.0694C58.8154 18.8795 58.6444 19.1075 58.6444 20.8746V22.8696H64.3445H70.0447V20.8746C70.0447 19.2785 69.8167 18.8795 68.9046 18.8795C67.8216 18.8795 67.7646 18.4805 67.7646 12.3243C67.7646 6.16818 67.8216 5.76917 68.9046 5.76917C69.8167 5.76917 70.0447 6.16818 70.0447 7.47922C70.0447 9.07526 70.1587 9.18927 72.3247 9.18927H74.6048V5.48417V1.77907H64.3445H54.0842V5.48417Z" fill="white"/>
<path d="M81.1649 3.37511C81.1649 4.23013 81.4499 5.25616 81.7919 5.59817C82.2479 6.05418 81.9059 7.93523 80.5378 12.5524C79.0558 17.6255 78.4858 18.8795 77.6308 18.8795C76.8327 18.8795 76.6047 19.3355 76.6047 20.8746V22.8696H81.4499H86.295V20.8746C86.295 19.2215 86.067 18.8795 85.098 18.8795C84.2999 18.8795 84.0149 18.5945 84.1289 17.8535C84.2429 17.1125 84.984 16.8275 87.492 16.7135C90.3421 16.5425 90.7411 16.7135 91.0261 17.7395C91.2541 18.6515 91.0261 18.8795 89.9431 18.8795C88.7461 18.8795 88.5751 19.1645 88.5751 20.8746V22.8696H94.5602H100.545V20.8746C100.545 19.2785 100.317 18.8795 99.4623 18.8795C98.8353 18.8795 98.2083 18.4235 98.0373 17.8535C97.9233 17.3405 96.7263 13.4644 95.4152 9.30327L93.0782 1.77907H87.15H81.1649V3.37511ZM87.834 13.0654C86.922 13.1794 86.067 13.1224 85.896 12.9514C85.725 12.8374 86.067 11.2983 86.637 9.64528L87.663 6.6242L88.5751 9.75928L89.4871 12.8944L87.834 13.0654Z" fill="white"/>
<path d="M102.545 5.76917V9.75928H105.11C107.676 9.75928 107.676 9.75928 107.676 7.76423C107.676 5.76917 107.676 5.76917 110.298 5.76917H112.863L111.723 7.30822C111.096 8.22024 108.816 11.0703 106.593 13.7494C103.115 17.8535 102.545 18.8795 102.545 20.7036V22.8696L112.407 22.7556L122.211 22.5846V18.8795V15.1744L119.532 15.0034L116.796 14.8324V16.8275C116.796 18.8795 116.796 18.8795 114.231 18.8795C112.806 18.8795 111.666 18.7655 111.666 18.6515C111.666 18.5375 114.117 15.5164 117.081 11.9253C121.413 6.7382 122.496 5.14216 122.496 3.60312V1.77907H112.521H102.545V5.76917Z" fill="white"/>
<path d="M124.496 3.74593C124.496 4.82896 124.781 5.74098 125.066 5.74098C125.408 5.74098 125.636 8.30605 125.636 12.2962C125.636 16.2863 125.408 18.8513 125.066 18.8513C124.781 18.8513 124.496 19.7634 124.496 20.8464V22.8414H128.486H132.476V20.8464C132.476 19.4783 132.191 18.8513 131.621 18.8513C130.937 18.8513 130.766 17.8823 130.823 13.5502V8.30605L132.134 13.1512C132.875 15.8303 133.787 19.0793 134.129 20.4474L134.813 22.8984L138.005 22.7274L141.198 22.5564L143.079 15.7162L144.903 8.87607L144.96 13.7782C145.017 17.7683 144.846 18.7943 144.105 19.0793C143.535 19.3073 143.307 19.9344 143.421 20.9604C143.592 22.5564 143.649 22.5564 148.323 22.7274L152.997 22.8984V20.8464C152.997 19.4783 152.769 18.8513 152.142 18.8513C151.458 18.8513 151.287 17.7683 151.287 12.3532C151.287 7.10902 151.458 5.79799 152.142 5.51298C152.655 5.34197 152.997 4.48695 152.997 3.46092V1.75088H147.297H141.654L141.084 3.85993C140.742 5.05696 140.229 7.22302 139.83 8.76206C139.487 10.2441 138.974 11.5551 138.803 11.7261C138.575 11.8401 137.777 9.67409 137.036 6.88101L135.725 1.75088H130.139H124.496V3.74593Z" fill="white"/>
<path d="M160.404 2.3128C159.492 2.88281 158.238 3.85184 157.725 4.42185C155.102 7.38593 154.19 13.4281 155.786 17.2472C158.466 23.6884 167.472 25.4554 172.83 20.6103L174.654 18.9572L172.944 17.1902L171.177 15.4801L169.239 16.9052C166.845 18.6722 165.762 18.6722 163.824 17.0192C160.518 14.2261 161.829 6.64491 165.534 6.64491C166.902 6.64491 167.415 6.98692 168.099 8.52596C168.897 10.236 169.125 10.35 171.519 10.236L174.084 10.065L174.255 5.90389L174.426 1.79978H171.861C170.436 1.79978 169.239 2.08479 169.125 2.4838C168.954 2.93981 168.498 2.88281 167.529 2.19879C165.705 0.944761 162.513 0.944761 160.404 2.3128Z" fill="white"/>
<path d="M183.26 0.574207C180.638 1.54323 178.13 3.82329 177.218 6.10335C176.135 8.61142 176.705 15.3376 178.13 17.2756C179.726 19.4417 183.773 21.4368 186.737 21.4368C188.447 21.4368 189.359 21.7218 189.872 22.5198C192.722 26.5669 198.309 24.4578 198.309 19.4417C198.309 17.7317 196.827 17.5037 196.314 19.1567C196.143 19.7837 195.744 20.2967 195.458 20.2967C194.432 20.2967 194.432 18.4727 195.515 16.5916C197.169 13.7986 196.941 6.38836 195.116 3.9373C192.608 0.574207 187.364 -0.907831 183.26 0.574207ZM188.276 5.19133C189.416 6.38836 190.955 11.7465 190.1 11.7465C189.929 11.7465 189.188 11.5185 188.39 11.2335C187.535 10.8915 186.281 10.8915 185.141 11.1765C184.115 11.4615 183.146 11.6325 183.032 11.5185C182.462 10.9485 183.659 6.61637 184.685 5.53334C185.996 4.1083 187.079 3.9943 188.276 5.19133ZM187.934 15.3376C188.105 16.5346 187.877 16.8766 187.079 16.8766C186.509 16.8766 185.654 16.6486 185.198 16.3066C184.514 15.9076 184.571 15.6226 185.483 14.5966C186.794 13.1145 187.706 13.3995 187.934 15.3376Z" fill="white"/>
<path d="M206.237 1.35683C203.729 2.04085 202.361 3.06688 201.449 4.77692C199.112 9.28004 201.905 13.0991 208.916 14.9802C211.88 15.7782 212.906 16.8612 211.709 17.8873C210.398 18.9703 206.921 18.1153 206.18 16.5192C205.667 15.3792 205.211 15.2082 202.931 15.2652L200.309 15.3222V19.0273V22.7324L203.045 22.9034C205.439 23.0744 205.724 22.9604 205.724 21.8774V20.6803L207.434 21.8774C209.885 23.6444 212.678 23.9294 215.756 22.7324C218.777 21.5924 220.088 19.8253 220.088 16.9752C220.088 14.1822 217.922 12.0731 213.476 10.4201C209.144 8.82403 207.776 7.741 208.631 6.65797C208.973 6.25896 210.056 5.91695 210.968 5.91695C212.222 5.91695 212.849 6.31596 213.59 7.627C214.445 9.22304 214.787 9.33704 217.124 9.22304L219.689 9.05203V5.34694V1.64184L217.238 1.47083C215.129 1.29983 214.73 1.47083 214.445 2.49686C214.16 3.63689 214.046 3.63689 213.077 2.72487C211.766 1.58484 208.232 0.843817 206.237 1.35683Z" fill="white"/>
</svg>
