<svg width="103" height="103" viewBox="0 0 103 103" fill="none" xmlns="http://www.w3.org/2000/svg">
<path fill-rule="evenodd" clip-rule="evenodd" d="M51.4771 36.7993C59.3833 36.7994 65.7945 43.2007 65.8104 51.1034L65.8105 51.1327L65.8104 51.1621C65.7945 59.0647 59.3833 65.4663 51.477 65.4663C43.5609 65.4663 37.1436 59.0489 37.1436 51.1327C37.1436 43.2166 43.5609 36.7993 51.4771 36.7993ZM56.2567 61.3465C58.6425 60.228 60.5723 58.2983 61.6907 55.9124C60.5233 56.4759 59.1511 56.9432 57.6314 57.2871C57.2875 58.8068 56.8201 60.179 56.2567 61.3465ZM62.751 51.1313C62.7466 51.0869 62.5915 50.1684 60.2991 49.0788C59.6704 48.7799 58.9507 48.5078 58.1539 48.2731C58.2428 49.1971 58.2896 50.1535 58.2896 51.1327C58.2896 52.112 58.2428 53.0683 58.1539 53.9925C58.9507 53.7577 59.6704 53.4855 60.2991 53.1867C62.5915 52.0972 62.7466 51.1786 62.751 51.1342V51.1313ZM57.6314 44.9784C59.1511 45.3223 60.5232 45.7896 61.6906 46.3531C60.5722 43.9673 58.6425 42.0375 56.2567 40.9191C56.8201 42.0865 57.2875 43.4587 57.6314 44.9784ZM53.5311 42.3108C53.8299 42.9394 54.102 43.6591 54.3367 44.4559C53.4127 44.367 52.4563 44.3203 51.4771 44.3203C50.4978 44.3203 49.5415 44.367 48.6173 44.4559C48.8521 43.6591 49.1243 42.9394 49.4231 42.3108C50.5303 39.9813 51.4609 39.8587 51.4771 39.8587C51.4933 39.8587 52.4239 39.9813 53.5311 42.3108ZM46.6975 40.919C46.134 42.0864 45.6666 43.4586 45.3228 44.9784C43.803 45.3223 42.4306 45.7897 41.2632 46.3532C42.3817 43.9673 44.3115 42.0374 46.6975 40.919ZM46.6975 61.3466C44.3115 60.2281 42.3817 58.2983 41.2632 55.9122C42.4306 56.4758 43.803 56.9432 45.3228 57.2871C45.6666 58.8068 46.134 60.1791 46.6975 61.3466ZM42.6551 53.1867C43.2837 53.4855 44.0035 53.7577 44.8001 53.9925C44.7112 53.0683 44.6646 52.112 44.6646 51.1327C44.6646 50.1535 44.7112 49.1971 44.8001 48.2731C44.0035 48.5078 43.2837 48.7799 42.6551 49.0788C40.3255 50.186 40.2031 51.1165 40.2031 51.1327C40.2031 51.1489 40.3255 52.0795 42.6551 53.1867ZM47.724 51.1327C47.724 52.3716 47.8067 53.5524 47.9557 54.6541C49.0574 54.8031 50.2382 54.8858 51.4771 54.8858C52.7159 54.8858 53.8968 54.8031 54.9983 54.6541C55.1474 53.5524 55.2301 52.3716 55.2301 51.1327C55.2301 49.894 55.1474 48.713 54.9983 47.6115C53.8968 47.4624 52.7159 47.3797 51.4771 47.3797C50.2382 47.3797 49.0574 47.4624 47.9557 47.6115C47.8067 48.713 47.724 49.894 47.724 51.1327ZM49.4231 59.9547C49.1243 59.3261 48.8521 58.6063 48.6173 57.8097C49.5415 57.8986 50.4978 57.9452 51.4771 57.9452C52.4563 57.9452 53.4127 57.8986 54.3368 57.8097C54.102 58.6063 53.8299 59.3261 53.5311 59.9547C52.4239 62.2843 51.4933 62.4068 51.4771 62.4068C51.4609 62.4068 50.5303 62.2843 49.4231 59.9547Z" fill="black" fill-opacity="0.5"/>
<path fill-rule="evenodd" clip-rule="evenodd" d="M30.0616 16.6851C27.8088 16.6851 25.9824 18.5113 25.9824 20.7643V81.0453C25.9824 83.2981 27.8088 85.1245 30.0616 85.1245H34.1403C34.1969 85.1267 34.2538 85.1279 34.3109 85.1279H77.1422C79.3952 85.1279 81.2214 83.3016 81.2214 81.0487V25.466C81.2214 23.2131 79.3952 21.3868 77.1422 21.3868H76.9722V20.7643C76.9722 18.5113 75.1459 16.6851 72.893 16.6851H30.0616ZM72.893 19.7445H30.0616C29.4984 19.7445 29.0418 20.201 29.0418 20.7643V81.0453C29.0418 81.6084 29.4984 82.0651 30.0616 82.0651H72.893C73.4562 82.0651 73.9128 81.6084 73.9128 81.0453V20.7643C73.9128 20.201 73.4562 19.7445 72.893 19.7445ZM76.9722 24.4462V81.0453C76.9722 81.3986 76.9272 81.7415 76.8428 82.0685H77.1422C77.7055 82.0685 78.162 81.612 78.162 81.0487V25.466C78.162 24.9027 77.7055 24.4462 77.1422 24.4462H76.9722Z" fill="black" fill-opacity="0.5"/>
</svg>
