<svg width="18" height="18" viewBox="0 0 18 18" fill="none" xmlns="http://www.w3.org/2000/svg">
<g clip-path="url(#clip0_252_151)">
<path fill-rule="evenodd" clip-rule="evenodd" d="M17.6916 6.8544C17.6916 6.8436 17.7021 6.8394 17.7021 6.8286C17.7021 6.8226 17.6963 6.8178 17.6951 6.8124C17.6963 6.7998 17.6986 6.789 17.6986 6.7758L16.6494 0.269402C16.6373 0.19421 16.5998 0.125881 16.5436 0.0765564C16.4873 0.0272322 16.416 0.000107608 16.3422 2.48725e-06H1.65248C1.57848 -0.000298096 1.5068 0.0266542 1.4503 0.0760248C1.3938 0.125395 1.35616 0.193954 1.34415 0.269402L0.290283 6.8286C0.290283 7.6806 0.706606 8.4318 1.34067 8.8818V17.6706C1.34067 17.8488 1.47886 17.9928 1.65248 17.9928H16.3422C16.5147 17.9928 16.654 17.8488 16.654 17.6706V8.877C16.9687 8.6479 17.2266 8.34536 17.4069 7.99393C17.5872 7.6425 17.6847 7.25209 17.6916 6.8544ZM16.1866 8.4168H16.1831C16.0563 8.49336 15.9208 8.55323 15.7796 8.595C15.7616 8.601 15.7442 8.6076 15.7262 8.6124C15.5849 8.6522 15.4394 8.67317 15.293 8.6748C14.8739 8.67399 14.4685 8.52095 14.1476 8.24246C13.8268 7.96397 13.6109 7.57776 13.5377 7.1514H17.0454C16.9993 7.41395 16.8987 7.66304 16.7504 7.8815C16.6021 8.09996 16.4098 8.28259 16.1866 8.4168ZM12.881 6.5064H9.30886V0.645602H12.881V6.5064ZM8.68351 6.5064H5.11022V0.645602H8.68351V6.5064ZM8.65157 7.1508C8.57856 7.57701 8.36286 7.96313 8.04219 8.24162C7.72153 8.5201 7.31632 8.67323 6.89744 8.6742C6.47846 8.67316 6.07315 8.52003 5.75232 8.24158C5.43149 7.96314 5.21552 7.57706 5.14215 7.1508H8.65157ZM12.8491 7.1508C12.7762 7.57707 12.5605 7.96325 12.2398 8.24176C11.9191 8.52026 11.5138 8.67334 11.0949 8.6742C10.6764 8.67269 10.2716 8.51933 9.95137 8.2409C9.63109 7.96247 9.41561 7.57666 9.34254 7.1508H12.8491ZM17.0256 6.5064H13.5058V0.645602H16.0757L17.0256 6.5064ZM1.91551 0.645602H4.48661V6.5064H0.971961L1.91551 0.645602ZM0.940025 7.1508H4.45467C4.38167 7.57691 4.16606 7.96295 3.84551 8.24143C3.52497 8.5199 3.1199 8.67309 2.70112 8.6742C2.55248 8.6742 2.40848 8.6508 2.26564 8.6118C2.2488 8.607 2.23254 8.601 2.2157 8.5968C2.07358 8.554 1.93693 8.49377 1.80867 8.4174C1.80635 8.415 1.80054 8.4162 1.79822 8.4138C1.57428 8.28121 1.38131 8.09934 1.233 7.88107C1.08468 7.6628 0.984663 7.41348 0.940025 7.1508ZM10.3575 17.3484V11.4888H13.9308V17.3484H10.3575ZM16.0298 9.1956V17.3484H14.5556V11.166C14.5555 11.1236 14.5473 11.0817 14.5316 11.0425C14.5158 11.0034 14.4927 10.9678 14.4637 10.9379C14.4346 10.908 14.4001 10.8843 14.3622 10.8681C14.3243 10.852 14.2836 10.8437 14.2426 10.8438H10.0451C10.0041 10.8437 9.96346 10.852 9.92553 10.8681C9.8876 10.8843 9.85312 10.908 9.82406 10.9379C9.795 10.9678 9.77192 11.0034 9.75616 11.0425C9.74039 11.0817 9.73223 11.1236 9.73215 11.166V17.349H1.96486V9.1962C1.9817 9.2022 1.99912 9.1998 2.01596 9.2058C2.2337 9.2724 2.46073 9.3204 2.70112 9.3204C3.1277 9.32002 3.54654 9.20269 3.9149 8.98038C4.28326 8.75807 4.58793 8.43875 4.79783 8.055C5.00825 8.43881 5.31336 8.75813 5.68209 8.98041C6.05081 9.2027 6.46998 9.32001 6.89686 9.3204C7.79512 9.3204 8.58074 8.8092 8.99473 8.0538C9.20491 8.43792 9.50994 8.75754 9.8787 8.98006C10.2475 9.20257 10.6667 9.32002 11.0938 9.3204C11.992 9.3204 12.7776 8.8092 13.1928 8.055C13.4031 8.43894 13.7082 8.75835 14.0769 8.98066C14.4457 9.20296 14.8649 9.3202 15.2918 9.3204C15.5311 9.3204 15.7581 9.2724 15.9758 9.2046C15.9938 9.198 16.0118 9.2016 16.0298 9.1956ZM7.63661 15.1794H4.06332V11.4894H7.63661V15.1794ZM7.94841 10.8432H3.75093C3.70988 10.843 3.66921 10.8513 3.63125 10.8674C3.59328 10.8835 3.55877 10.9072 3.5297 10.9371C3.50062 10.9671 3.47755 11.0027 3.46181 11.0418C3.44606 11.081 3.43796 11.123 3.43796 11.1654V15.5028C3.43796 15.681 3.57732 15.825 3.75093 15.825H7.94841C8.12086 15.825 8.26138 15.681 8.26138 15.5028V11.1654C8.2613 11.123 8.25315 11.0811 8.23738 11.0419C8.22161 11.0028 8.19853 10.9672 8.16947 10.9373C8.14041 10.9074 8.10593 10.8837 8.068 10.8675C8.03007 10.8514 7.98944 10.8431 7.94841 10.8432Z" fill="black"/>
</g>
<defs>
<clipPath id="clip0_252_151">
<rect width="18" height="18" fill="white"/>
</clipPath>
</defs>
</svg>
