<svg width="40" height="35" viewBox="0 0 40 35" fill="none" xmlns="http://www.w3.org/2000/svg">
<path d="M23.3649 3.52331C18.9186 5.29716 11.9951 8.0556 7.97859 9.65753C3.51663 11.4314 0.586266 12.6426 0.437794 12.7676C0.304951 12.877 0.15648 13.0411 0.10178 13.1349C0.0236366 13.2599 0.00800804 15.6824 0.000193743 23.6764C0.000193743 35.0149 -0.0232492 34.3898 0.445609 34.5851C0.609709 34.6477 4.90757 34.6711 17.4104 34.6555L34.1643 34.632L34.3518 34.4132L34.5394 34.1944V28.4665V22.7387L37.0868 21.7384C39.9078 20.621 40.0641 20.5272 39.9859 19.9802C39.9625 19.8317 38.2355 15.4167 36.1491 10.1733C33.3047 3.04664 32.2967 0.592949 32.1482 0.460106C32.031 0.358521 31.8591 0.288189 31.7028 0.296005C31.5621 0.296005 27.8113 1.74947 23.3649 3.52331ZM34.6879 10.7593C36.5711 15.5104 38.134 19.441 38.1496 19.4957C38.1652 19.5661 37.626 19.8239 36.532 20.2615C35.6334 20.621 34.8129 20.9414 34.7191 20.9648L34.5394 21.0117V17.0889V13.1662L34.3128 12.9395C34.1877 12.8145 34.0158 12.7129 33.9299 12.7129C33.797 12.7129 33.6407 12.3769 32.9687 10.6968C31.9763 8.20407 31.8747 7.99309 31.5934 7.88369C31.4762 7.8368 31.0073 7.7821 30.5541 7.76647C29.2257 7.70396 28.2958 7.27417 27.2877 6.25831C26.8736 5.83634 26.7563 5.7582 26.5297 5.7582C26.1312 5.7582 9.86965 12.2519 9.61178 12.5176L9.40861 12.7129L7.03306 12.6973L4.6497 12.6739L5.27484 12.4238C5.61867 12.291 11.5966 9.90759 18.5591 7.13351C25.5217 4.36725 31.2261 2.10111 31.2339 2.10892C31.2417 2.11674 32.7968 6.01607 34.6879 10.7593ZM26.4985 7.68052C27.2721 8.51665 28.8662 9.23556 30.1634 9.34496L30.7494 9.39185L31.4058 11.0172C31.7653 11.9081 32.0466 12.6582 32.0232 12.6739C31.9997 12.6973 27.7488 12.7051 22.5757 12.6973L13.1673 12.6739L19.6531 10.0795C23.2243 8.6573 26.1781 7.48516 26.225 7.48516C26.2719 7.47734 26.3891 7.57112 26.4985 7.68052ZM32.9765 23.692V33.1082H17.2698H1.56305V23.692V14.2758H17.2698H32.9765V23.692Z" fill="white"/>
</svg>
