<svg width="18" height="18" viewBox="0 0 18 18" fill="none" xmlns="http://www.w3.org/2000/svg">
<path d="M16.7399 8.75262H16.6499V6.294C16.6499 5.52666 16.0816 4.89144 15.3442 4.78236V4.22922C15.3442 3.38556 14.6578 2.69922 13.8142 2.69922H13.1363L12.7793 1.74792C12.755 1.68295 12.7065 1.62986 12.644 1.59966C12.5816 1.56947 12.5099 1.56448 12.4438 1.58574L8.98764 2.69922H1.93218C1.21416 2.69922 0.629883 3.2835 0.629883 4.00152V14.8966C0.629883 15.7402 1.31622 16.4266 2.15988 16.4266H15.1199C15.9635 16.4266 16.6499 15.7402 16.6499 14.8966V12.4379H16.7399C17.0873 12.4379 17.3699 12.1553 17.3699 11.8079V9.38262C17.3699 9.0354 17.0873 8.75262 16.7399 8.75262ZM13.339 3.2394H13.8142C14.3599 3.2394 14.8042 3.68346 14.8042 4.2294V4.76418H13.9112L13.8574 4.62072L13.339 3.2394ZM12.5596 2.6994L12.9982 3.86832L13.3345 4.76418H4.3395L12.3643 2.17902L12.5596 2.6994ZM1.93218 3.2394H7.3113L3.9201 4.332L2.57856 4.76418H1.93218C1.51188 4.76418 1.16988 4.42218 1.16988 4.00188C1.16988 3.58158 1.51188 3.2394 1.93218 3.2394ZM16.1099 14.8966C16.1099 15.4425 15.6656 15.8866 15.1199 15.8866H2.15988C1.89741 15.8863 1.64576 15.7819 1.46016 15.5963C1.27456 15.4107 1.17017 15.159 1.16988 14.8966V5.05704C1.17366 5.05992 1.17816 5.06172 1.18212 5.0646C1.22928 5.0979 1.27842 5.12832 1.3299 5.15532C1.33944 5.16036 1.34952 5.16468 1.35924 5.16954C1.40694 5.19312 1.45608 5.21382 1.50684 5.23146C1.51548 5.23452 1.52376 5.23794 1.5324 5.24082C1.58856 5.259 1.64634 5.27268 1.70556 5.28312C1.7187 5.28546 1.73202 5.28726 1.74534 5.28924C1.80654 5.29806 1.86864 5.30418 1.93218 5.30418H15.1199C15.6656 5.30418 16.1099 5.74824 16.1099 6.29418V8.7528H14.321C13.4774 8.7528 12.791 9.43914 12.791 10.2828V10.9081C12.791 11.7518 13.4774 12.4381 14.321 12.4381H16.1099V14.8966ZM16.8299 11.8079C16.8299 11.8318 16.8204 11.8547 16.8035 11.8716C16.7866 11.8885 16.7638 11.8979 16.7399 11.8979H14.321C14.0586 11.8977 13.8069 11.7933 13.6213 11.6077C13.4357 11.4221 13.3313 11.1704 13.331 10.9079V10.2826C13.331 9.73668 13.7753 9.29262 14.321 9.29262H16.7399C16.7638 9.29262 16.7866 9.3021 16.8035 9.31898C16.8204 9.33586 16.8299 9.35875 16.8299 9.38262V11.8079Z" fill="black"/>
<path d="M15.0208 9.81396C14.8135 9.81416 14.6148 9.89655 14.4683 10.0431C14.3217 10.1896 14.2393 10.3883 14.239 10.5955C14.239 11.0266 14.5897 11.3771 15.0208 11.3771C15.4519 11.3771 15.8023 11.0264 15.8023 10.5955C15.8021 10.3883 15.7197 10.1897 15.5731 10.0431C15.4266 9.89662 15.228 9.8142 15.0208 9.81396ZM15.0208 10.8373C14.8876 10.8373 14.779 10.7289 14.779 10.5957C14.7807 10.5328 14.8069 10.473 14.8521 10.429C14.8972 10.3851 14.9577 10.3606 15.0207 10.3606C15.0836 10.3606 15.1441 10.3851 15.1893 10.429C15.2344 10.473 15.2606 10.5328 15.2623 10.5957C15.2623 10.7287 15.154 10.8373 15.0208 10.8373Z" fill="black"/>
</svg>
